<?xml version="1.0" standalone="no"?><!DOCTYPE svg PUBLIC "-//W3C//DTD SVG 1.1//EN" "http://www.w3.org/Graphics/SVG/1.1/DTD/svg11.dtd"><svg t="1660235784898" class="icon" viewBox="0 0 1024 1024" version="1.1" xmlns="http://www.w3.org/2000/svg" p-id="6536" xmlns:xlink="http://www.w3.org/1999/xlink" width="200" height="200"><defs><style type="text/css"></style></defs><path d="M158.72 713.728H63.488c-20.48 0-36.864-16.384-36.864-36.864V406.528c0-20.48 16.384-36.864 36.864-36.864h95.232v344.064z" fill="#EFD152" p-id="6537"></path><path d="M444.416 873.472L175.104 713.728V370.688l269.312-158.72c40.96-23.552 92.16 5.12 92.16 52.224v557.056c0 47.104-51.2 75.776-92.16 52.224z" fill="#009F72" p-id="6538"></path><path d="M677.888 684.032c-12.288 0-23.552-4.096-32.768-13.312-18.432-18.432-18.432-47.104 0-65.536 49.152-49.152 49.152-129.024 0-178.176-18.432-18.432-18.432-47.104 0-65.536 18.432-18.432 47.104-18.432 65.536 0 84.992 84.992 84.992 223.232 0 309.248-9.216 8.192-20.48 13.312-32.768 13.312zM868.352 769.024c-12.288 0-23.552-4.096-32.768-13.312-18.432-18.432-18.432-47.104 0-65.536 96.256-96.256 96.256-252.928 0-348.16-18.432-18.432-18.432-47.104 0-65.536 18.432-18.432 47.104-18.432 65.536 0 132.096 132.096 132.096 347.136 0 479.232-9.216 9.216-20.48 13.312-32.768 13.312z" fill="#EFD152" p-id="6539"></path><path d="M118.784 260.096c0-75.776 62.464-138.24 138.24-138.24h513.024c75.776 0 138.24 62.464 138.24 138.24v3.072h92.16v-3.072C1000.448 133.12 897.024 29.696 770.048 29.696H257.024c-126.976-1.024-230.4 102.4-230.4 230.4v79.872h92.16v-79.872zM908.288 769.024v3.072c0 75.776-62.464 138.24-138.24 138.24H257.024c-75.776 0-138.24-62.464-138.24-138.24v-26.624h-92.16v26.624c0 126.976 103.424 230.4 230.4 230.4h513.024c126.976 0 230.4-103.424 230.4-230.4v-3.072h-92.16z" fill="#009F72" p-id="6540"></path></svg>